<svg width="619" height="78" viewBox="0 0 619 78" fill="none" xmlns="http://www.w3.org/2000/svg">
<g filter="url(#filter0_d_2_52)">
<path d="M4.424 16.352H30.688V22.736H11.48V32.48H29.68V38.864H11.48V49.616H31.696V56H4.424V16.352ZM54.8424 52.304H54.6744C53.7037 53.8347 52.4717 54.9547 50.9784 55.664C49.485 56.336 47.8424 56.672 46.0504 56.672C44.8184 56.672 43.605 56.504 42.4104 56.168C41.253 55.832 40.2077 55.328 39.2744 54.656C38.3784 53.984 37.6504 53.144 37.0904 52.136C36.5304 51.128 36.2504 49.952 36.2504 48.608C36.2504 47.152 36.5117 45.92 37.0344 44.912C37.557 43.8667 38.2477 43.008 39.1064 42.336C40.0024 41.6267 41.029 41.0667 42.1864 40.656C43.3437 40.2453 44.5384 39.9467 45.7704 39.76C47.0397 39.536 48.309 39.4053 49.5784 39.368C50.8477 39.2933 52.0424 39.256 53.1624 39.256H54.8424V38.528C54.8424 36.848 54.2637 35.5973 53.1064 34.776C51.949 33.9173 50.4744 33.488 48.6824 33.488C47.2637 33.488 45.9384 33.7493 44.7064 34.272C43.4744 34.7573 42.4104 35.4293 41.5144 36.288L37.9864 32.76C39.4797 31.2293 41.2157 30.128 43.1944 29.456C45.2104 28.784 47.2824 28.448 49.4104 28.448C51.3144 28.448 52.9197 28.672 54.2264 29.12C55.533 29.5307 56.6157 30.072 57.4744 30.744C58.333 31.416 58.9864 32.2 59.4344 33.096C59.9197 33.9547 60.2557 34.832 60.4424 35.728C60.6664 36.624 60.797 37.5013 60.8344 38.36C60.8717 39.1813 60.8904 39.9093 60.8904 40.544V56H54.8424V52.304ZM54.4504 43.96H53.0504C52.117 43.96 51.0717 43.9973 49.9144 44.072C48.757 44.1467 47.6557 44.3333 46.6104 44.632C45.6024 44.8933 44.7437 45.304 44.0344 45.864C43.325 46.3867 42.9704 47.1333 42.9704 48.104C42.9704 48.7387 43.101 49.28 43.3624 49.728C43.661 50.1387 44.0344 50.4933 44.4824 50.792C44.9304 51.0907 45.4344 51.3147 45.9944 51.464C46.5544 51.576 47.1144 51.632 47.6744 51.632C49.989 51.632 51.6877 51.0907 52.7704 50.008C53.8904 48.888 54.4504 47.376 54.4504 45.472V43.96ZM82.4565 36.568C81.1498 34.7387 79.3952 33.824 77.1925 33.824C76.2965 33.824 75.4192 34.048 74.5605 34.496C73.7018 34.944 73.2725 35.672 73.2725 36.68C73.2725 37.5013 73.6272 38.0987 74.3365 38.472C75.0458 38.8453 75.9418 39.1627 77.0245 39.424C78.1072 39.6853 79.2645 39.9653 80.4965 40.264C81.7658 40.5253 82.9418 40.9547 84.0245 41.552C85.1072 42.112 86.0032 42.896 86.7125 43.904C87.4218 44.912 87.7765 46.2933 87.7765 48.048C87.7765 49.6533 87.4218 51.016 86.7125 52.136C86.0405 53.2187 85.1445 54.096 84.0245 54.768C82.9418 55.44 81.7098 55.9253 80.3285 56.224C78.9472 56.5227 77.5658 56.672 76.1845 56.672C74.0938 56.672 72.1712 56.3733 70.4165 55.776C68.6618 55.1787 67.0938 54.096 65.7125 52.528L70.1925 48.328C71.0512 49.2987 71.9658 50.1013 72.9365 50.736C73.9445 51.3333 75.1578 51.632 76.5765 51.632C77.0618 51.632 77.5658 51.576 78.0885 51.464C78.6112 51.352 79.0965 51.1653 79.5445 50.904C79.9925 50.6427 80.3472 50.3253 80.6085 49.952C80.9072 49.5413 81.0565 49.0747 81.0565 48.552C81.0565 47.6187 80.7018 46.928 79.9925 46.48C79.2832 46.032 78.3872 45.6773 77.3045 45.416C76.2218 45.1173 75.0458 44.856 73.7765 44.632C72.5445 44.3707 71.3872 43.9787 70.3045 43.456C69.2218 42.896 68.3258 42.1307 67.6165 41.16C66.9072 40.1893 66.5525 38.8453 66.5525 37.128C66.5525 35.6347 66.8512 34.3467 67.4485 33.264C68.0832 32.144 68.9045 31.2293 69.9125 30.52C70.9205 29.8107 72.0778 29.288 73.3845 28.952C74.6912 28.616 76.0165 28.448 77.3605 28.448C79.1525 28.448 80.9258 28.7653 82.6805 29.4C84.4352 29.9973 85.8538 31.0427 86.9365 32.536L82.4565 36.568ZM89.3633 29.12H96.7553L104.259 47.768H104.371L111.091 29.12H118.091L105.379 61.768C104.894 63.0373 104.353 64.1387 103.755 65.072C103.195 66.0427 102.523 66.8453 101.739 67.48C100.955 68.152 100.022 68.6373 98.9393 68.936C97.894 69.272 96.6246 69.44 95.1313 69.44C93.3766 69.44 91.6593 69.216 89.9793 68.768L90.8193 62.72C91.342 62.9067 91.8833 63.056 92.4433 63.168C93.0406 63.3173 93.638 63.392 94.2353 63.392C95.0566 63.392 95.7473 63.3173 96.3073 63.168C96.8673 63.0187 97.334 62.776 97.7073 62.44C98.118 62.1413 98.454 61.7307 98.7153 61.208C98.9766 60.7227 99.2566 60.1253 99.5553 59.416L100.843 56.224L89.3633 29.12ZM119.142 48.272H125.974L121.214 63.056H115.222L119.142 48.272ZM150.658 16.352H176.25V22.736H157.714V33.152H175.186V39.536H157.714V56H150.658V16.352ZM198.999 52.304H198.831C197.86 53.8347 196.628 54.9547 195.135 55.664C193.641 56.336 191.999 56.672 190.207 56.672C188.975 56.672 187.761 56.504 186.567 56.168C185.409 55.832 184.364 55.328 183.431 54.656C182.535 53.984 181.807 53.144 181.247 52.136C180.687 51.128 180.407 49.952 180.407 48.608C180.407 47.152 180.668 45.92 181.191 44.912C181.713 43.8667 182.404 43.008 183.263 42.336C184.159 41.6267 185.185 41.0667 186.343 40.656C187.5 40.2453 188.695 39.9467 189.927 39.76C191.196 39.536 192.465 39.4053 193.735 39.368C195.004 39.2933 196.199 39.256 197.319 39.256H198.999V38.528C198.999 36.848 198.42 35.5973 197.263 34.776C196.105 33.9173 194.631 33.488 192.839 33.488C191.42 33.488 190.095 33.7493 188.863 34.272C187.631 34.7573 186.567 35.4293 185.671 36.288L182.143 32.76C183.636 31.2293 185.372 30.128 187.351 29.456C189.367 28.784 191.439 28.448 193.567 28.448C195.471 28.448 197.076 28.672 198.383 29.12C199.689 29.5307 200.772 30.072 201.631 30.744C202.489 31.416 203.143 32.2 203.591 33.096C204.076 33.9547 204.412 34.832 204.599 35.728C204.823 36.624 204.953 37.5013 204.991 38.36C205.028 39.1813 205.047 39.9093 205.047 40.544V56H198.999V52.304ZM198.607 43.96H197.207C196.273 43.96 195.228 43.9973 194.071 44.072C192.913 44.1467 191.812 44.3333 190.767 44.632C189.759 44.8933 188.9 45.304 188.191 45.864C187.481 46.3867 187.127 47.1333 187.127 48.104C187.127 48.7387 187.257 49.28 187.519 49.728C187.817 50.1387 188.191 50.4933 188.639 50.792C189.087 51.0907 189.591 51.3147 190.151 51.464C190.711 51.576 191.271 51.632 191.831 51.632C194.145 51.632 195.844 51.0907 196.927 50.008C198.047 48.888 198.607 47.376 198.607 45.472V43.96ZM226.613 36.568C225.306 34.7387 223.551 33.824 221.349 33.824C220.453 33.824 219.575 34.048 218.717 34.496C217.858 34.944 217.429 35.672 217.429 36.68C217.429 37.5013 217.783 38.0987 218.493 38.472C219.202 38.8453 220.098 39.1627 221.181 39.424C222.263 39.6853 223.421 39.9653 224.653 40.264C225.922 40.5253 227.098 40.9547 228.181 41.552C229.263 42.112 230.159 42.896 230.869 43.904C231.578 44.912 231.933 46.2933 231.933 48.048C231.933 49.6533 231.578 51.016 230.869 52.136C230.197 53.2187 229.301 54.096 228.181 54.768C227.098 55.44 225.866 55.9253 224.485 56.224C223.103 56.5227 221.722 56.672 220.341 56.672C218.25 56.672 216.327 56.3733 214.573 55.776C212.818 55.1787 211.25 54.096 209.869 52.528L214.349 48.328C215.207 49.2987 216.122 50.1013 217.093 50.736C218.101 51.3333 219.314 51.632 220.733 51.632C221.218 51.632 221.722 51.576 222.245 51.464C222.767 51.352 223.253 51.1653 223.701 50.904C224.149 50.6427 224.503 50.3253 224.765 49.952C225.063 49.5413 225.213 49.0747 225.213 48.552C225.213 47.6187 224.858 46.928 224.149 46.48C223.439 46.032 222.543 45.6773 221.461 45.416C220.378 45.1173 219.202 44.856 217.933 44.632C216.701 44.3707 215.543 43.9787 214.461 43.456C213.378 42.896 212.482 42.1307 211.773 41.16C211.063 40.1893 210.709 38.8453 210.709 37.128C210.709 35.6347 211.007 34.3467 211.605 33.264C212.239 32.144 213.061 31.2293 214.069 30.52C215.077 29.8107 216.234 29.288 217.541 28.952C218.847 28.616 220.173 28.448 221.517 28.448C223.309 28.448 225.082 28.7653 226.837 29.4C228.591 29.9973 230.01 31.0427 231.093 32.536L226.613 36.568ZM234.024 34.832V29.12H239.568V21.336H246.288V29.12H253.68V34.832H246.288V46.592C246.288 47.936 246.53 49 247.016 49.784C247.538 50.568 248.546 50.96 250.04 50.96C250.637 50.96 251.29 50.904 252 50.792C252.709 50.6427 253.269 50.4187 253.68 50.12V55.776C252.97 56.112 252.093 56.336 251.048 56.448C250.04 56.5973 249.144 56.672 248.36 56.672C246.568 56.672 245.093 56.4667 243.936 56.056C242.816 55.6827 241.92 55.104 241.248 54.32C240.613 53.4987 240.165 52.4907 239.904 51.296C239.68 50.1013 239.568 48.72 239.568 47.152V34.832H234.024ZM292.296 52.304H292.128C291.157 53.8347 289.925 54.9547 288.432 55.664C286.938 56.336 285.296 56.672 283.504 56.672C282.272 56.672 281.058 56.504 279.864 56.168C278.706 55.832 277.661 55.328 276.728 54.656C275.832 53.984 275.104 53.144 274.544 52.136C273.984 51.128 273.704 49.952 273.704 48.608C273.704 47.152 273.965 45.92 274.488 44.912C275.01 43.8667 275.701 43.008 276.56 42.336C277.456 41.6267 278.482 41.0667 279.64 40.656C280.797 40.2453 281.992 39.9467 283.224 39.76C284.493 39.536 285.762 39.4053 287.032 39.368C288.301 39.2933 289.496 39.256 290.616 39.256H292.296V38.528C292.296 36.848 291.717 35.5973 290.56 34.776C289.402 33.9173 287.928 33.488 286.136 33.488C284.717 33.488 283.392 33.7493 282.16 34.272C280.928 34.7573 279.864 35.4293 278.968 36.288L275.44 32.76C276.933 31.2293 278.669 30.128 280.648 29.456C282.664 28.784 284.736 28.448 286.864 28.448C288.768 28.448 290.373 28.672 291.68 29.12C292.986 29.5307 294.069 30.072 294.928 30.744C295.786 31.416 296.44 32.2 296.888 33.096C297.373 33.9547 297.709 34.832 297.896 35.728C298.12 36.624 298.25 37.5013 298.288 38.36C298.325 39.1813 298.344 39.9093 298.344 40.544V56H292.296V52.304ZM291.904 43.96H290.504C289.57 43.96 288.525 43.9973 287.368 44.072C286.21 44.1467 285.109 44.3333 284.064 44.632C283.056 44.8933 282.197 45.304 281.488 45.864C280.778 46.3867 280.424 47.1333 280.424 48.104C280.424 48.7387 280.554 49.28 280.816 49.728C281.114 50.1387 281.488 50.4933 281.936 50.792C282.384 51.0907 282.888 51.3147 283.448 51.464C284.008 51.576 284.568 51.632 285.128 51.632C287.442 51.632 289.141 51.0907 290.224 50.008C291.344 48.888 291.904 47.376 291.904 45.472V43.96ZM305.574 29.12H311.958V33.432H312.07C312.704 32.088 313.675 30.9307 314.982 29.96C316.288 28.952 318.062 28.448 320.302 28.448C322.094 28.448 323.606 28.7467 324.838 29.344C326.107 29.9413 327.134 30.7253 327.918 31.696C328.702 32.6667 329.262 33.7867 329.598 35.056C329.934 36.3253 330.102 37.6507 330.102 39.032V56H323.382V42.392C323.382 41.6453 323.344 40.824 323.27 39.928C323.195 38.9947 322.99 38.136 322.654 37.352C322.355 36.5307 321.87 35.8587 321.198 35.336C320.526 34.776 319.611 34.496 318.454 34.496C317.334 34.496 316.382 34.6827 315.598 35.056C314.851 35.4293 314.216 35.9333 313.694 36.568C313.208 37.2027 312.854 37.9307 312.63 38.752C312.406 39.5733 312.294 40.432 312.294 41.328V56H305.574V29.12ZM359.01 51.968H358.898C357.927 53.6107 356.621 54.8053 354.978 55.552C353.335 56.2987 351.562 56.672 349.658 56.672C347.567 56.672 345.701 56.3173 344.058 55.608C342.453 54.8613 341.071 53.8533 339.914 52.584C338.757 51.3147 337.879 49.8213 337.282 48.104C336.685 46.3867 336.386 44.5387 336.386 42.56C336.386 40.5813 336.703 38.7333 337.338 37.016C337.973 35.2987 338.85 33.8053 339.97 32.536C341.127 31.2667 342.509 30.2773 344.114 29.568C345.719 28.8213 347.474 28.448 349.378 28.448C350.647 28.448 351.767 28.5787 352.738 28.84C353.709 29.1013 354.567 29.4373 355.314 29.848C356.061 30.2587 356.695 30.7067 357.218 31.192C357.741 31.64 358.17 32.088 358.506 32.536H358.674V13.664H365.394V56H359.01V51.968ZM343.106 42.56C343.106 43.6053 343.274 44.6133 343.61 45.584C343.983 46.5547 344.506 47.4133 345.178 48.16C345.887 48.9067 346.727 49.504 347.698 49.952C348.669 50.4 349.77 50.624 351.002 50.624C352.234 50.624 353.335 50.4 354.306 49.952C355.277 49.504 356.098 48.9067 356.77 48.16C357.479 47.4133 358.002 46.5547 358.338 45.584C358.711 44.6133 358.898 43.6053 358.898 42.56C358.898 41.5147 358.711 40.5067 358.338 39.536C358.002 38.5653 357.479 37.7067 356.77 36.96C356.098 36.2133 355.277 35.616 354.306 35.168C353.335 34.72 352.234 34.496 351.002 34.496C349.77 34.496 348.669 34.72 347.698 35.168C346.727 35.616 345.887 36.2133 345.178 36.96C344.506 37.7067 343.983 38.5653 343.61 39.536C343.274 40.5067 343.106 41.5147 343.106 42.56ZM390.19 16.352H403.966C405.87 16.352 407.699 16.5387 409.454 16.912C411.246 17.248 412.832 17.8453 414.214 18.704C415.595 19.5627 416.696 20.72 417.518 22.176C418.339 23.632 418.75 25.48 418.75 27.72C418.75 30.5947 417.947 33.0027 416.342 34.944C414.774 36.8853 412.515 38.0613 409.566 38.472L420.094 56H411.582L402.398 39.2H397.246V56H390.19V16.352ZM402.734 33.152C403.742 33.152 404.75 33.1147 405.758 33.04C406.766 32.928 407.68 32.704 408.502 32.368C409.36 31.9947 410.051 31.4533 410.574 30.744C411.096 29.9973 411.358 28.9707 411.358 27.664C411.358 26.5067 411.115 25.5733 410.63 24.864C410.144 24.1547 409.51 23.632 408.726 23.296C407.942 22.9227 407.064 22.68 406.094 22.568C405.16 22.456 404.246 22.4 403.35 22.4H397.246V33.152H402.734ZM430.223 44.912C430.447 46.928 431.231 48.496 432.575 49.616C433.919 50.736 435.543 51.296 437.447 51.296C439.127 51.296 440.527 50.96 441.647 50.288C442.804 49.5787 443.812 48.7013 444.671 47.656L449.487 51.296C447.919 53.2373 446.164 54.6187 444.223 55.44C442.282 56.2613 440.247 56.672 438.119 56.672C436.103 56.672 434.199 56.336 432.407 55.664C430.615 54.992 429.066 54.04 427.759 52.808C426.452 51.576 425.407 50.1013 424.623 48.384C423.876 46.6293 423.503 44.688 423.503 42.56C423.503 40.432 423.876 38.5093 424.623 36.792C425.407 35.0373 426.452 33.544 427.759 32.312C429.066 31.08 430.615 30.128 432.407 29.456C434.199 28.784 436.103 28.448 438.119 28.448C439.986 28.448 441.684 28.784 443.215 29.456C444.783 30.0907 446.108 31.024 447.191 32.256C448.311 33.488 449.17 35.0187 449.767 36.848C450.402 38.64 450.719 40.712 450.719 43.064V44.912H430.223ZM443.999 39.872C443.962 37.8933 443.346 36.344 442.151 35.224C440.956 34.0667 439.295 33.488 437.167 33.488C435.151 33.488 433.546 34.0667 432.351 35.224C431.194 36.3813 430.484 37.9307 430.223 39.872H443.999ZM457.115 13.664H463.835V56H457.115V13.664ZM471.717 29.12H478.437V56H471.717V29.12ZM470.765 19.992C470.765 18.9093 471.157 17.976 471.941 17.192C472.762 16.3707 473.789 15.96 475.021 15.96C476.253 15.96 477.28 16.352 478.101 17.136C478.96 17.8827 479.389 18.8347 479.389 19.992C479.389 21.1493 478.96 22.12 478.101 22.904C477.28 23.6507 476.253 24.024 475.021 24.024C473.789 24.024 472.762 23.632 471.941 22.848C471.157 22.0267 470.765 21.0747 470.765 19.992ZM502.952 52.304H502.784C501.813 53.8347 500.581 54.9547 499.088 55.664C497.594 56.336 495.952 56.672 494.16 56.672C492.928 56.672 491.714 56.504 490.52 56.168C489.362 55.832 488.317 55.328 487.384 54.656C486.488 53.984 485.76 53.144 485.2 52.136C484.64 51.128 484.36 49.952 484.36 48.608C484.36 47.152 484.621 45.92 485.144 44.912C485.666 43.8667 486.357 43.008 487.216 42.336C488.112 41.6267 489.138 41.0667 490.296 40.656C491.453 40.2453 492.648 39.9467 493.88 39.76C495.149 39.536 496.418 39.4053 497.688 39.368C498.957 39.2933 500.152 39.256 501.272 39.256H502.952V38.528C502.952 36.848 502.373 35.5973 501.216 34.776C500.058 33.9173 498.584 33.488 496.792 33.488C495.373 33.488 494.048 33.7493 492.816 34.272C491.584 34.7573 490.52 35.4293 489.624 36.288L486.096 32.76C487.589 31.2293 489.325 30.128 491.304 29.456C493.32 28.784 495.392 28.448 497.52 28.448C499.424 28.448 501.029 28.672 502.336 29.12C503.642 29.5307 504.725 30.072 505.584 30.744C506.442 31.416 507.096 32.2 507.544 33.096C508.029 33.9547 508.365 34.832 508.552 35.728C508.776 36.624 508.906 37.5013 508.944 38.36C508.981 39.1813 509 39.9093 509 40.544V56H502.952V52.304ZM502.56 43.96H501.16C500.226 43.96 499.181 43.9973 498.024 44.072C496.866 44.1467 495.765 44.3333 494.72 44.632C493.712 44.8933 492.853 45.304 492.144 45.864C491.434 46.3867 491.08 47.1333 491.08 48.104C491.08 48.7387 491.21 49.28 491.472 49.728C491.77 50.1387 492.144 50.4933 492.592 50.792C493.04 51.0907 493.544 51.3147 494.104 51.464C494.664 51.576 495.224 51.632 495.784 51.632C498.098 51.632 499.797 51.0907 500.88 50.008C502 48.888 502.56 47.376 502.56 45.472V43.96ZM516.23 13.664H522.95V32.536H523.118C523.454 32.088 523.883 31.64 524.406 31.192C524.929 30.7067 525.563 30.2587 526.31 29.848C527.057 29.4373 527.915 29.1013 528.886 28.84C529.857 28.5787 530.977 28.448 532.246 28.448C534.15 28.448 535.905 28.8213 537.51 29.568C539.115 30.2773 540.478 31.2667 541.598 32.536C542.755 33.8053 543.651 35.2987 544.286 37.016C544.921 38.7333 545.238 40.5813 545.238 42.56C545.238 44.5387 544.939 46.3867 544.342 48.104C543.745 49.8213 542.867 51.3147 541.71 52.584C540.553 53.8533 539.153 54.8613 537.51 55.608C535.867 56.3173 534.019 56.672 531.966 56.672C530.062 56.672 528.289 56.2987 526.646 55.552C525.003 54.8053 523.697 53.6107 522.726 51.968H522.614V56H516.23V13.664ZM538.518 42.56C538.518 41.5147 538.331 40.5067 537.958 39.536C537.622 38.5653 537.099 37.7067 536.39 36.96C535.718 36.2133 534.897 35.616 533.926 35.168C532.955 34.72 531.854 34.496 530.622 34.496C529.39 34.496 528.289 34.72 527.318 35.168C526.347 35.616 525.507 36.2133 524.798 36.96C524.126 37.7067 523.603 38.5653 523.23 39.536C522.894 40.5067 522.726 41.5147 522.726 42.56C522.726 43.6053 522.894 44.6133 523.23 45.584C523.603 46.5547 524.126 47.4133 524.798 48.16C525.507 48.9067 526.347 49.504 527.318 49.952C528.289 50.4 529.39 50.624 530.622 50.624C531.854 50.624 532.955 50.4 533.926 49.952C534.897 49.504 535.718 48.9067 536.39 48.16C537.099 47.4133 537.622 46.5547 537.958 45.584C538.331 44.6133 538.518 43.6053 538.518 42.56ZM551.615 13.664H558.335V56H551.615V13.664ZM571.426 44.912C571.65 46.928 572.434 48.496 573.778 49.616C575.122 50.736 576.746 51.296 578.65 51.296C580.33 51.296 581.73 50.96 582.85 50.288C584.008 49.5787 585.016 48.7013 585.874 47.656L590.69 51.296C589.122 53.2373 587.368 54.6187 585.426 55.44C583.485 56.2613 581.45 56.672 579.322 56.672C577.306 56.672 575.402 56.336 573.61 55.664C571.818 54.992 570.269 54.04 568.962 52.808C567.656 51.576 566.61 50.1013 565.826 48.384C565.08 46.6293 564.706 44.688 564.706 42.56C564.706 40.432 565.08 38.5093 565.826 36.792C566.61 35.0373 567.656 33.544 568.962 32.312C570.269 31.08 571.818 30.128 573.61 29.456C575.402 28.784 577.306 28.448 579.322 28.448C581.189 28.448 582.888 28.784 584.418 29.456C585.986 30.0907 587.312 31.024 588.394 32.256C589.514 33.488 590.373 35.0187 590.97 36.848C591.605 38.64 591.922 40.712 591.922 43.064V44.912H571.426ZM585.202 39.872C585.165 37.8933 584.549 36.344 583.354 35.224C582.16 34.0667 580.498 33.488 578.37 33.488C576.354 33.488 574.749 34.0667 573.554 35.224C572.397 36.3813 571.688 37.9307 571.426 39.872H585.202Z" fill="white"/>
</g>
<defs>
<filter id="filter0_d_2_52" x="0.424011" y="13.664" width="595.498" height="63.776" filterUnits="userSpaceOnUse" color-interpolation-filters="sRGB">
<feFlood flood-opacity="0" result="BackgroundImageFix"/>
<feColorMatrix in="SourceAlpha" type="matrix" values="0 0 0 0 0 0 0 0 0 0 0 0 0 0 0 0 0 0 127 0" result="hardAlpha"/>
<feOffset dy="4"/>
<feGaussianBlur stdDeviation="2"/>
<feColorMatrix type="matrix" values="0 0 0 0 0 0 0 0 0 0 0 0 0 0 0 0 0 0 0.25 0"/>
<feBlend mode="normal" in2="BackgroundImageFix" result="effect1_dropShadow_2_52"/>
<feBlend mode="normal" in="SourceGraphic" in2="effect1_dropShadow_2_52" result="shape"/>
</filter>
</defs>
</svg>
