<svg width="70" height="70" viewBox="0 0 70 70" fill="none" xmlns="http://www.w3.org/2000/svg">
<g clip-path="url(#clip0_4_4142)">
<path d="M69.9873 66.8325L64.9263 21.5789C64.8101 20.5409 63.9326 19.756 62.8883 19.756H7.10523C6.06071 19.756 5.18297 20.541 5.06715 21.5791L0.0126919 66.8328C-0.0521125 67.4129 0.133277 67.9929 0.522378 68.4279C0.911476 68.8628 1.46724 69.1113 2.05089 69.1113H67.9493C68.5328 69.1113 69.089 68.8628 69.4778 68.4279C69.867 67.9929 70.0522 67.4125 69.9873 66.8325Z" fill="#E13A3A"/>
<path d="M69.9873 66.8325L64.9263 21.5788C64.8101 20.5408 63.9326 19.756 62.8883 19.756H35V69.1113H67.9493C68.5329 69.1113 69.0887 68.8625 69.4779 68.4275C69.867 67.9926 70.0522 67.4125 69.9873 66.8325Z" fill="#F74D4D"/>
<path d="M21.8069 34.5899C24.0721 34.5899 25.9084 32.7537 25.9084 30.4884C25.9084 28.2232 24.0721 26.3869 21.8069 26.3869C19.5416 26.3869 17.7053 28.2232 17.7053 30.4884C17.7053 32.7537 19.5416 34.5899 21.8069 34.5899Z" fill="#2E2E2E"/>
<path d="M48.1935 34.5899C50.4586 34.5899 52.2948 32.7537 52.2948 30.4883C52.2948 28.2231 50.4586 26.3868 48.1935 26.3868C45.928 26.3868 44.0918 28.2231 44.0918 30.4883C44.0918 32.7537 45.928 34.5899 48.1935 34.5899Z" fill="#1A1A1A"/>
<path d="M48.1933 31.8557C47.0609 31.8557 46.1426 30.9374 46.1426 29.8048V16.133C46.1426 9.98895 41.144 4.99038 34.9999 4.99038C28.856 4.99038 23.8574 9.98895 23.8574 16.133V29.8048C23.8574 30.9374 22.9392 31.8557 21.8066 31.8557C20.6741 31.8557 19.7559 30.9374 19.7559 29.8048V16.133C19.7559 7.72735 26.5944 0.888824 34.9999 0.888824C43.4056 0.888824 50.2443 7.72735 50.2443 16.133V29.8048C50.2443 30.9374 49.326 31.8557 48.1933 31.8557Z" fill="#FFF4F4"/>
<path d="M35 0.888824V4.99038C41.1441 4.99038 46.1427 9.98895 46.1427 16.133V29.8048C46.1427 30.9374 47.0607 31.8557 48.1934 31.8557C49.3258 31.8557 50.2441 30.9374 50.2441 29.8048V16.133C50.2441 7.72735 43.4057 0.888824 35 0.888824Z" fill="#F6EFEA"/>
<path d="M16.189 38.7164H19.1671C19.8884 38.7164 20.5714 38.7969 21.2162 38.9582C21.8696 39.1195 22.4381 39.3823 22.9217 39.7473C23.4053 40.1036 23.7871 40.5704 24.0671 41.1473C24.3556 41.7241 24.4999 42.4241 24.4999 43.2473C24.4999 43.9769 24.3599 44.6218 24.0799 45.1818C23.8084 45.7332 23.4393 46.2 22.9726 46.5818C22.5059 46.955 21.9671 47.2395 21.3562 47.4345C20.7453 47.6296 20.1047 47.7273 19.4344 47.7273H16.189V38.7164ZM18.1744 45.8945H19.2053C19.6635 45.8945 20.0877 45.8478 20.4781 45.7545C20.8768 45.6613 21.2205 45.5086 21.509 45.2964C21.7975 45.0759 22.0223 44.7914 22.1835 44.4436C22.3532 44.0873 22.4381 43.6546 22.4381 43.1455C22.4381 42.7041 22.3532 42.3223 22.1835 42C22.0223 41.6691 21.8017 41.3977 21.5217 41.1855C21.2417 40.9732 20.9108 40.8164 20.529 40.7145C20.1556 40.6041 19.7611 40.5491 19.3453 40.5491H18.1744V45.8945ZM33.4446 44.2527C33.4446 44.7873 33.3638 45.2795 33.2028 45.7291C33.0415 46.1787 32.7996 46.5691 32.4773 46.9C32.1633 47.2309 31.7687 47.4896 31.2936 47.6764C30.8184 47.8631 30.2711 47.9564 29.6517 47.9564C29.0238 47.9564 28.4723 47.8631 27.9972 47.6764C27.522 47.4896 27.1232 47.2309 26.8008 46.9C26.4869 46.5691 26.2493 46.1787 26.0881 45.7291C25.9269 45.2795 25.8463 44.7873 25.8463 44.2527V38.7164H27.8317V44.1764C27.8317 44.4564 27.8742 44.715 27.959 44.9527C28.0523 45.1904 28.1796 45.3982 28.3408 45.5764C28.502 45.746 28.6929 45.8818 28.9136 45.9836C29.1427 46.0769 29.3887 46.1236 29.6517 46.1236C29.9148 46.1236 30.1566 46.0769 30.3772 45.9836C30.5978 45.8818 30.7887 45.746 30.9499 45.5764C31.1111 45.3982 31.2342 45.1904 31.319 44.9527C31.4123 44.715 31.459 44.4564 31.459 44.1764V38.7164H33.4446V44.2527ZM35.2799 38.7164H38.2835L40.358 44.5964H40.3835L42.4708 38.7164H45.4617V47.7273H43.4762V40.8164H43.4508L41.0835 47.7273H39.569L37.2908 40.8164H37.2653V47.7273H35.2799V38.7164ZM47.2985 38.7164H50.6585C51.049 38.7164 51.4394 38.746 51.8295 38.8055C52.2285 38.8564 52.5848 38.9668 52.8985 39.1364C53.2126 39.2977 53.4671 39.5268 53.6622 39.8236C53.8575 40.1205 53.9549 40.5151 53.9549 41.0073C53.9549 41.5164 53.8108 41.9405 53.5222 42.28C53.2422 42.6109 52.869 42.8486 52.4022 42.9927V43.0182C52.6994 43.0605 52.9666 43.1455 53.204 43.2727C53.4503 43.3914 53.658 43.5486 53.8276 43.7436C54.0058 43.9304 54.1417 44.1509 54.2349 44.4055C54.3285 44.66 54.3749 44.9314 54.3749 45.22C54.3749 45.695 54.2731 46.094 54.0695 46.4164C53.8658 46.7304 53.603 46.985 53.2804 47.18C52.958 47.375 52.5931 47.515 52.1858 47.6C51.7871 47.685 51.3885 47.7273 50.9895 47.7273H47.2985V38.7164ZM49.284 42.3182H50.7222C50.8749 42.3182 51.0235 42.3013 51.1676 42.2673C51.3204 42.2332 51.4562 42.1782 51.5749 42.1018C51.6939 42.0255 51.7871 41.9236 51.8549 41.7964C51.9313 41.6691 51.9695 41.5164 51.9695 41.3382C51.9695 41.1514 51.9271 40.9987 51.8422 40.88C51.7658 40.7527 51.664 40.655 51.5367 40.5873C51.4095 40.5195 51.2653 40.4727 51.104 40.4473C50.943 40.4132 50.7858 40.3964 50.6331 40.3964H49.284V42.3182ZM49.284 46.0473H51.0658C51.2185 46.0473 51.3713 46.0304 51.524 45.9964C51.6853 45.9623 51.8295 45.9031 51.9567 45.8182C52.084 45.7332 52.1858 45.6231 52.2622 45.4873C52.3471 45.3514 52.3895 45.186 52.3895 44.9909C52.3895 44.7787 52.3344 44.6091 52.224 44.4818C52.1222 44.346 51.9908 44.2441 51.8295 44.1764C51.6685 44.1086 51.4944 44.0618 51.3076 44.0364C51.1212 44.0109 50.9471 43.9982 50.7858 43.9982H49.284V46.0473Z" fill="white"/>
<path d="M13.5291 51.4436H15.12L18.1745 58.5073H18.2L21.28 51.4436H22.8327V60.4545H21.7636V52.8945H21.7381L18.5054 60.4545H17.8563L14.6236 52.8945H14.5981V60.4545H13.5291V51.4436ZM25.0756 51.4436H30.7392V52.4364H26.1447V55.2618H30.4338V56.2545H26.1447V59.4618H30.9683V60.4545H25.0756V51.4436ZM32.62 51.4436H34.9236C35.3563 51.4436 35.7849 51.4691 36.209 51.52C36.6418 51.5709 37.0277 51.6813 37.3672 51.8509C37.7067 52.0205 37.9823 52.2709 38.1945 52.6018C38.4067 52.9241 38.5127 53.3654 38.5127 53.9254C38.5127 54.5873 38.3132 55.1218 37.9145 55.5291C37.5158 55.9364 36.9641 56.195 36.26 56.3054L38.8181 60.4545H37.5072L35.0636 56.4073H33.689V60.4545H32.62V51.4436ZM33.689 55.4145H34.6436C34.9405 55.4145 35.2459 55.4059 35.56 55.3891C35.8823 55.3722 36.175 55.3169 36.4381 55.2236C36.7095 55.1304 36.9304 54.9859 37.1 54.7909C37.2781 54.5873 37.3672 54.2987 37.3672 53.9254C37.3672 53.6031 37.3036 53.3441 37.1763 53.1491C37.049 52.954 36.8795 52.8054 36.6672 52.7036C36.4636 52.5932 36.2304 52.5213 35.9672 52.4873C35.7127 52.4532 35.454 52.4364 35.1909 52.4364H33.689V55.4145ZM46.7132 53.3018C46.4418 52.9369 46.1064 52.6654 45.7077 52.4873C45.309 52.3005 44.8932 52.2073 44.4604 52.2073C43.9599 52.2073 43.4973 52.3091 43.0732 52.5127C42.6573 52.7164 42.2968 52.9922 41.9914 53.34C41.6859 53.6795 41.4482 54.0782 41.2786 54.5364C41.109 54.9859 41.0241 55.4569 41.0241 55.9491C41.0241 56.475 41.109 56.9673 41.2786 57.4254C41.4482 57.875 41.6818 58.2696 41.9786 58.6091C42.2841 58.94 42.6446 59.2031 43.0604 59.3982C43.4846 59.5932 43.9514 59.6909 44.4604 59.6909C45.0119 59.6909 45.5041 59.5849 45.9368 59.3727C46.3695 59.1522 46.7472 58.8382 47.0695 58.4309L47.8714 59.1054C47.4641 59.6486 46.9719 60.0473 46.395 60.3018C45.8264 60.5564 45.1818 60.6836 44.4604 60.6836C43.8155 60.6836 43.2132 60.5649 42.6532 60.3273C42.0932 60.0896 41.6054 59.7631 41.1895 59.3473C40.7823 58.9231 40.46 58.4223 40.2223 57.8454C39.9932 57.2686 39.8786 56.6364 39.8786 55.9491C39.8786 55.2873 39.989 54.6678 40.2095 54.0909C40.4386 53.514 40.7568 53.0132 41.1641 52.5891C41.5714 52.1649 42.055 51.8296 42.615 51.5836C43.175 51.3377 43.79 51.2145 44.4604 51.2145C45.0714 51.2145 45.6568 51.3249 46.2168 51.5454C46.7854 51.7659 47.2604 52.1268 47.6423 52.6273L46.7132 53.3018ZM49.3617 51.4436H50.4308V55.2618H55.2417V51.4436H56.3108V60.4545H55.2417V56.2545H50.4308V60.4545H49.3617V51.4436Z" fill="white"/>
</g>
<defs>
<clipPath id="clip0_4_4142">
<rect width="70" height="70" fill="white"/>
</clipPath>
</defs>
</svg>
